<svg xmlns="http://www.w3.org/2000/svg" width="227" height="326" fill="none"><path fill="url(#a)" d="m.218 33.568 219.106-.257-.218 291.746-6.233.007.212-283.446-212.873.25.006-8.3Z"/><path fill="#BC9728" d="M160.205 107.862c3.598 7.023 11.169.95 14.675-3.155 2.672-3.13 4.898-6.889 7.188-10.502 1.099-1.731 2.278-3.451 3.435-5.202-2.188 9.668-3.52 19.725-4.123 29.768-2.244 1.22-4.394 3.292-6.43 4.833-2.641 2.001-5.536 3.783-7.953 6.264-2.614 2.685-4.506 8.074-.98 10.926 3.866 3.127 7.742-1.686 10.406-5.139 1.774-2.299 3.487-4.866 4.586-7.757-.099 4.799-.04 9.607.238 14.365.21 3.583.717 7.008 2.485 9.795.055.086.118.164.175.25-2.283 5.929-3.324 12.818-3.285 19.672a1.635 1.635 0 0 0-.165 1.061c.055.355.129.697.214 1.031.106 2.814.39 5.604.844 8.301-1.719 8.408-9.632 10.889-14.634 15.221-1.932 1.672-3.419 4.331-2.771 7.529.558 2.755 2.412 4.819 4.477 5.269 5.421 1.179 10.394-5.879 12.797-11.669.997-2.4 1.739-4.923 2.267-7.518.371 1.195.77 2.371 1.191 3.527 3.012 12.212 7.001 27.073.927 38.961-1.369 2.678-3.138 4.948-5.054 6.914-1.076 1.104-.955 1.257-2.402.582-1.397-.653-1.389-.759-1.2-2.542.161-1.537.675-3.008 1.318-4.297 1.148-2.301 2.825-4.08 4.538-5.569 1.652-1.435 3.635-2.386 5.079-4.195.953-1.193-.058-2.987-1.163-2.691-2.583.69-5.23 3.514-7.219 5.772-1.942 2.204-3.631 4.953-4.402 8.243-.61 2.608-.771 6.207.854 8.227 1.93 2.4 4.277.397 5.989-1.408 5.157-5.441 8.257-12.529 8.747-21.336.321-5.759-.475-11.368-1.765-16.792 1.57 3.193 3.256 6.298 4.985 9.375 4.908 8.741 9.837 17.804 11.681 28.72.974 5.766.906 11.761-.47 17.447-.631 2.606-1.512 5.089-2.688 7.341-1.168 2.237-2.706 4.001-3.916 6.183-.653 1.179.416 2.867 1.389 2.424 6.002-2.732 8.982-13.548 9.702-21.155.95-10.058-1.491-20.003-5.109-28.61-1.942-4.621-4.288-8.85-6.69-13.027 2.479 2.407 5.198 4.373 8.126 5.879 4.801 2.471 12.806 5.493 17.584 1.267 3.809-3.369 3.454-10.665-1.061-12.315-2.498-.913-4.89.322-7.135 1.823-3.821 2.554-7.194 3.832-11.464 3.91-.447.008-.755.428-.872.92-3.222-2.071-6.217-4.767-8.874-7.927-1.308-2.326-2.58-4.689-3.756-7.147-2.182-4.562-4.046-9.493-5.343-14.663 1.438 2.148 3.165 3.987 5.087 5.456 3.093 2.364 6.566 3.778 10.061 4.655 2.067.519 6.048 2.254 7.688-.392 1.574-2.541-.203-5.766-1.656-7.459-2.173-2.529-4.951-3.845-7.721-4.726-3.03-.962-6.161-1.361-9.12-2.692-2.639-1.185-4.523-2.891-6.095-5.507a56.684 56.684 0 0 1-.146-6.04c.143-4.761 1.015-9.447 2.504-13.736 1.589 1.615 3.414 2.873 5.146 4.084 5.147 3.596 10.924 6.667 16.88 5.513 4.701-.911 9.351-4.345 11.453-10.321 2.255-6.409.895-14.592-3.157-18.988-3.935-4.272-10.842-4.8-14.528.464-.918 1.311.218 3.091 1.357 2.36 4.562-2.93 10.1-3.49 13.084 2.981 2.515 5.457 1.253 12.463-2.635 16.159-3.994 3.798-8.995 3.947-13.512 2.252-2.565-.962-4.987-2.452-7.341-4.085-1.748-1.214-3.689-2.422-5.25-4.139 2.066-4.47 4.865-8.324 8.295-11.086.627-.504.211-2.044-.508-1.629-4.041 2.325-7.157 5.95-9.449 10.34-1.355-2.734-1.394-6.205-1.526-9.446a221.282 221.282 0 0 1-.185-9.112c.001-2.505.055-5.008.142-7.512a56.738 56.738 0 0 0 2 3.272c.981 1.484 2.058 3.476 3.34 4.474 2.283 1.775 3.639-1.083 3.862-3.961.471-6.062-3.648-14.203-8.682-12.973.044-.543.077-1.085.124-1.628.906-10.39 2.683-20.698 5.387-30.554 1.414 6.38 3.061 12.848 5.94 18.278 1.851 3.491 7.568 12.019 11.321 8.471 3.866-3.653-.431-13.515-2.142-17.111-2.798-5.878-7.364-12.266-12.537-14.174-1.129-.415-1.69 1.647-.78 2.466 3.644 3.277 7.14 5.917 9.908 10.647a39.2 39.2 0 0 1 3.338 7.424c.676 2.034 2.957 9.029-.586 8.03-3.66-1.032-6.852-7.08-8.555-11.064-2.064-4.83-3.418-10.138-4.684-15.43-.068-.285-.194-.482-.344-.608.117-.395.233-.79.353-1.184 3.902-12.764 9.664-24.38 17.25-33.767.732-.907-.333-2.295-1.072-1.433-8.322 9.725-14.409 21.795-18.637 35.018-7.366 3.015-14.462 7.766-20.986 13.248-4.091 3.443-11.592 10.305-7.659 17.981Zm56.102 105.096c2.012-1.374 5.318-3.501 7.169-.636 2.896 4.482-3.197 6.951-5.452 7.002-3.936.09-7.814-.874-11.48-2.639 3.414.002 6.59-1.563 9.763-3.727Zm-36.035-17.85c-1.016 2.88-2.365 5.558-4.093 7.764-1.991 2.543-6.193 6.534-8.6 3.011-2.573-3.765 2.255-6.109 4.29-7.369 2.422-1.503 4.878-2.945 7.024-5.125a18.87 18.87 0 0 0 2.927-3.851 44.513 44.513 0 0 1-1.548 5.57Zm22.955-7.032c.694.547 4.098 3.461 2.474 4.96-.244.224-1.322-.144-1.604-.186a36.404 36.404 0 0 1-3.158-.625c-2.9-.702-5.754-1.762-8.406-3.482-2.896-1.881-5.474-4.64-7.309-8.086a18.8 18.8 0 0 0 3.682 2.167c4.668 2.091 10.006 1.85 14.321 5.252Zm-27.008-55.672c-1.863 2.509-6.621 9.453-9.333 5.588-2.952-4.206 5.597-8.9 7.529-10.3 1.881-1.361 4.093-2.617 6.103-4.15-.657 3.403-2.403 6.305-4.299 8.862Zm8.261-16.758c1.725.779 3.251 1.181 4.589 2.989 1.221 1.651 2.044 3.902 2.119 6.259.036 1.1.241 2.768-1.008 2.595-.557-.077-1.803-2.373-2.192-2.928-1.336-1.906-2.566-3.939-3.766-6.002.054-.991.107-1.984.174-2.974.03.018.053.047.084.061Zm-11.696-26.47c4.848-3.544 9.871-6.37 14.994-9.012-.137.473-.272.946-.404 1.422-3.961 4.93-7.198 11.243-10.84 16.516-1.758 2.547-3.605 5.053-5.787 6.944-2.252 1.952-7.225 5.148-9.073 1.15-3.522-7.616 7.383-14.296 11.11-17.02ZM167.595 78.268c4.094-8.638 7.637-18.03 9.87-27.767 9.931-5.647 18.982-13.742 26.26-24.776.647-.98-.404-2.38-1.083-1.408-7.027 10.06-15.741 17.724-25.325 22.94-.295.16-.592.314-.887.47a.882.882 0 0 0-.459-.45c-3.987-1.644-7.987-3.406-11.63-6.105-3.006-2.227-7.57-6.41-8.363-11.238-.768-4.67 4.505-1.693 6.039-.811 1.996 1.146 3.883 2.623 5.6 4.369 3.572 3.631 5.573 8.233 8.055 13.024.621 1.197 2.169.447 1.852-1.041-1.459-6.822-6.286-12.815-10.72-16.478-2.714-2.24-10.151-7.863-12.883-2.741-2.651 4.971 3.789 12.472 6.426 14.9 4.098 3.773 8.972 5.915 13.778 7.75a81.594 81.594 0 0 1-22.962 7.263c-.408.065-.816.111-1.224.171.904-6.65-5.242-12.046-9.799-11.395-2.165.31-4.308 2.114-2.962 5.119.755 1.687 2.26 3.1 3.381 4.386a47.98 47.98 0 0 0 2.471 2.624 93.632 93.632 0 0 1-5.649.224 96.308 96.308 0 0 1-6.856-.198c-2.439-.158-5.049-.192-7.114-1.968 3.293-3.047 6.005-7.178 7.736-12.523.307-.952-.853-1.491-1.228-.663-2.062 4.541-4.95 8.256-8.304 11.005-1.298-2.05-2.216-4.608-3.137-6.909-1.24-3.1-2.372-6.289-3.107-9.67-1.297-5.953-1.207-12.555 1.632-17.847 2.763-5.15 8.028-6.851 12.145-3.558 4.882 3.904 4.486 11.216 2.302 17.255-.544 1.508.8 2.998 1.782 1.78 3.942-4.892 3.513-14.007.283-19.18-3.326-5.326-9.488-7.08-14.3-4.072-4.486 2.805-7.048 8.96-7.712 15.17-.841 7.867 1.495 15.477 4.224 22.253.92 2.283 1.874 4.683 3.096 6.773-3.22 1.987-6.743 3.16-10.322 3.373a24.517 24.517 0 0 1-4.545-.162c-1.976-2.061-3.267-4.54-4.17-8.017-1.014-3.9-1.328-8.03-2.068-12.026-.675-3.652-1.676-7.312-3.59-10.167-1.28-1.91-3.715-4.24-5.62-2.148-1.983 2.177-.659 7.425-.26 10.15.677 4.61 1.756 9.188 3.548 13.256 1.115 2.53 2.507 4.8 4.128 6.688-3.895-1.684-7.613-4.12-11.055-6.98-1.855-1.537-3.639-3.205-5.394-4.921-2.39-3.491-4.432-7.432-6.004-11.674.37-.158.684-.567.688-1.156.039-5.636.985-10.095 2.889-15.152 1.119-2.974 2.037-6.135 1.339-9.427C77.125.63 71.634.199 69.117 5.244c-3.156 6.326-.846 16.879 1.034 23.205 1.146 3.857 2.637 7.436 4.46 10.696-3.154-3.149-6.344-6.225-9.832-8.766-6.492-4.733-13.984-7.905-21.547-6.6-5.72.988-13.843 4.977-15.871 12.912-.33 1.288.947 2.69 1.83 1.822 1.636-1.606 2.954-3.645 4.634-5.2a19.374 19.374 0 0 1 5.51-3.585c4.272-1.845 8.781-1.964 13.123-.708 8.222 2.38 15.063 8.838 21.661 15.275 2.323 2.266 4.667 4.477 7.076 6.533-4.085-1.678-8.31-2.698-12.64-2.245-6.624.69-11.943 4.818-16.013 11.653-1.35 2.269-2.846 5.377-1.032 7.912 1.527 2.134 4.236 1.907 6.193 1.086 2.472-1.034 4.531-3.276 6.182-5.851 1.69-2.638 3.802-6.147 4.31-9.559.217-1.46-1.139-2.786-2.03-1.521-1.355 1.915-2.061 4.539-3.133 6.724-1.113 2.27-2.443 4.49-4.169 6.02-.965.856-2.071 1.54-3.225 1.76-1.34.256-1.42.268-1.918-1.572-.517-1.908-.4-1.747.427-3.173 1.47-2.538 3.17-4.885 5.178-6.705 8.916-8.077 20.114-2.888 29.316 1.028.873.55 1.758 1.07 2.658 1.554a22.431 22.431 0 0 0-5.645 3.03c-4.345 3.202-9.634 9.8-8.72 16.95.347 2.724 1.91 5.161 3.984 5.883 2.407.838 4.402-1.138 5.652-3.695 3.234-6.622 5.066-17.082 11.384-19.393 2.03.587 4.131.947 6.249 1.073.251.11.509.206.776.278.314.085.589-.02.798-.224 5.157.018 10.335-1.392 14.785-4.434.065.074.122.157.189.23 2.105 2.319 4.683 2.971 7.38 3.23 3.581.344 7.2.397 10.809.242-2.171 1.465-4.094 3.74-5.816 6.092-2.585 3.534-6.188 8.677-3.818 13.762 2.164 4.64 6.207 2.114 8.215-1.348 1.856-3.203 3.183-7.033 4.676-10.53 1.151-2.694 2.7-5.543 3.607-8.511 7.553-.844 15.113-2.653 22.377-5.591-1.314 1.536-2.601 3.1-3.898 4.56-2.708 3.04-5.526 5.998-7.869 9.54-3.072 4.648-7.606 14.673-2.306 19.388 5.785 5.159 10.915-4.777 13.487-10.203ZM72.017 27.854c-1.345-4.83-2.086-9.943-2.038-15.14.028-2.977 1.857-11.03 5.243-7.231 2.163 2.429.578 6.803-.446 9.466-1.613 4.201-2.775 8.4-2.758 12.905Zm20.537 32.504c-1.07 1.086-2.039 2.408-2.884 3.883-1.628 2.842-2.703 6.09-3.823 9.297-.94 2.693-2.681 9.077-5.524 5.7-2.662-3.16.321-8.726 2.226-11.368a20.69 20.69 0 0 1 5.822-5.441 23.479 23.479 0 0 1 4.183-2.071Zm5.019-9.391c.41 1.584.954 3.272 1.648 4.849-2.601-2.407-4.69-5.794-6.117-9.607-1.307-3.49-2.117-7.254-2.658-11.079a78.818 78.818 0 0 1-.485-4.165c-.033-.371-.315-1.793-.147-2.116 1.12-2.15 3.328 2.33 3.742 3.24 2.58 5.679 2.423 12.727 4.017 18.878Zm44.64 10.775c-1.143 2.66-2.079 5.587-3.095 8.076-1.042 2.558-4.536 13.865-7.714 9.99-2.92-3.558 2.282-9.876 4.161-12.347 1.913-2.516 4.09-4.834 6.648-5.719Zm5.967-5.16c-.746.093-1.492.168-2.237.243-1.558-1.57-3.093-3.184-4.533-4.94-.419-.51-2.152-2.144-2.213-2.88-.136-1.646 1.12-1.385 1.948-1.343 1.775.088 3.471 1.163 4.719 2.767 1.366 1.756 1.674 3.768 2.269 6.041.011.043.033.075.047.112Zm7.167 29.947c-3.016-2.42-.634-9 .824-11.982 1.412-2.89 3.289-5.338 5.198-7.673 3.95-4.833 8.684-9.14 12.375-14.39.358-.177.715-.357 1.069-.54-1.964 6.773-4.068 13.42-6.712 19.836-2.033 4.933-7.007 19.36-12.754 14.749Z"/><defs><linearGradient id="a" x1=".11" x2="219.215" y1="179.442" y2="179.606" gradientUnits="userSpaceOnUse"><stop offset=".04" stop-color="#F3EAA7"/><stop offset=".136" stop-color="#BC9728"/><stop offset=".235" stop-color="#7C671F"/><stop offset=".374" stop-color="#BC9728"/><stop offset=".535" stop-color="#F3EAA7"/><stop offset=".686" stop-color="#7C671F"/><stop offset=".834" stop-color="#B49127"/><stop offset=".98" stop-color="#F3EAA7"/></linearGradient></defs></svg>