<svg xmlns="http://www.w3.org/2000/svg" width="228" height="323" fill="none"><path fill="url(#a)" d="M228 289.423H1.942V0h6.431v281.19H228v8.233Z"/><path fill="#BC9728" d="M69.427 216.741c-3.785-7.038-11.664-1.095-15.307 2.943-2.777 3.08-5.086 6.791-7.462 10.356-1.14 1.709-2.363 3.405-3.564 5.132 2.244-9.592 3.595-19.584 4.183-29.571 2.338-1.184 4.574-3.218 6.693-4.724 2.75-1.956 5.764-3.691 8.277-6.128 2.719-2.637 4.672-7.975.979-10.861-4.048-3.163-8.076 1.575-10.843 4.976-1.842 2.264-3.62 4.796-4.756 7.659.084-4.776.004-9.561-.307-14.3-.233-3.569-.776-6.984-2.633-9.781-.058-.087-.124-.165-.183-.252 2.358-5.87 3.418-12.712 3.349-19.534.16-.276.24-.638.168-1.054-.06-.354-.138-.696-.228-1.029a61.913 61.913 0 0 0-.915-8.273c1.76-8.345 10.012-10.708 15.216-14.952 2.01-1.639 3.552-4.265 2.862-7.456-.593-2.75-2.537-4.829-4.695-5.304-5.664-1.246-10.826 5.712-13.312 11.443-1.03 2.375-1.796 4.876-2.336 7.451a76.668 76.668 0 0 0-1.257-3.526c-3.195-12.194-7.419-27.037-1.126-38.787 1.418-2.647 3.256-4.882 5.248-6.813 1.119-1.085.992-1.24 2.505-.548 1.461.67 1.453.774 1.264 2.547-.163 1.527-.693 2.984-1.359 4.258-1.19 2.275-2.932 4.023-4.715 5.482-1.72 1.406-3.785 2.326-5.285 4.107-.99 1.175.072 2.974 1.225 2.694 2.693-.652 5.445-3.427 7.513-5.648 2.018-2.168 3.77-4.88 4.561-8.145.627-2.588.78-6.167-.924-8.199-2.024-2.415-4.467-.453-6.246 1.322-5.362 5.345-8.57 12.358-9.046 21.117-.312 5.726.542 11.319 1.91 16.735-1.65-3.199-3.424-6.312-5.24-9.397-5.16-8.765-10.342-17.85-12.311-28.74-1.04-5.75-.994-11.716.42-17.356.647-2.585 1.557-5.045 2.776-7.27 1.21-2.211 2.808-3.947 4.063-6.102.676-1.165-.446-2.859-1.46-2.43-6.255 2.638-9.322 13.363-10.042 20.923-.952 9.998 1.636 19.928 5.448 28.542 2.047 4.625 4.513 8.866 7.038 13.055-2.599-2.429-5.444-4.422-8.507-5.96-5.023-2.523-13.391-5.638-18.362-1.496-3.963 3.302-3.563 10.568 1.157 12.27 2.611.943 5.103-.255 7.441-1.719 3.98-2.49 7.495-3.717 11.952-3.738.466-.002.786-.415.907-.903 3.371 2.103 6.51 4.827 9.296 8.007 1.374 2.332 2.712 4.701 3.95 7.163 2.296 4.57 4.262 9.502 5.637 14.664a23.818 23.818 0 0 0-5.333-5.498c-3.238-2.394-6.87-3.847-10.521-4.767-2.161-.543-6.324-2.324-8.024.288-1.634 2.507.234 5.741 1.758 7.446 2.279 2.546 5.184 3.892 8.08 4.806 3.167.998 6.437 1.437 9.532 2.801 2.759 1.215 4.733 2.938 6.384 5.562.167 1.987.233 3.994.177 6.013-.13 4.736-1.021 9.388-2.558 13.637-1.666-1.628-3.576-2.905-5.39-4.133-5.387-3.648-11.43-6.781-17.643-5.713-4.903.844-9.744 4.2-11.915 10.12-2.328 6.348-.874 14.509 3.373 18.939 4.126 4.304 11.338 4.922 15.165-.267.953-1.293-.24-3.08-1.426-2.368-4.751 2.855-10.53 3.339-13.671-3.141-2.648-5.465-1.359-12.42 2.685-16.047 4.154-3.726 9.375-3.808 14.097-2.061 2.681.993 5.215 2.507 7.68 4.164 1.83 1.231 3.86 2.46 5.497 4.189-2.139 4.422-5.045 8.22-8.615 10.922-.652.494-.212 2.032.537 1.629 4.21-2.261 7.448-5.826 9.822-10.165 1.426 2.74 1.48 6.194 1.632 9.421.142 3.02.219 6.046.23 9.072.01 2.493-.037 4.983-.117 7.474a57.666 57.666 0 0 0-2.102-3.283c-1.03-1.49-2.162-3.487-3.505-4.498-2.39-1.797-3.794 1.029-4.016 3.891-.466 6.027 3.867 14.184 9.116 13.027-.043.54-.075 1.079-.122 1.618-.904 10.329-2.717 20.564-5.5 30.337-1.502-6.369-3.248-12.828-6.275-18.27-1.947-3.5-7.949-12.063-11.853-8.582-4.02 3.584.505 13.456 2.306 17.058 2.944 5.887 7.736 12.305 13.145 14.273 1.18.428 1.757-1.616.804-2.443-3.817-3.31-7.478-5.984-10.386-10.729a38.838 38.838 0 0 1-3.515-7.433c-.714-2.033-3.124-9.026.579-7.984 3.825 1.076 7.182 7.138 8.976 11.126 2.174 4.835 3.61 10.135 4.952 15.419.072.284.204.482.362.609-.12.392-.24.783-.364 1.174-4.022 12.651-9.99 24.135-17.872 33.375-.76.893.357 2.289 1.126 1.441 8.648-9.568 14.954-21.498 19.314-34.602 7.677-2.903 15.066-7.536 21.854-12.904 4.257-3.372 12.06-10.101 7.923-17.793ZM10.434 111.397c-2.095 1.34-5.537 3.413-7.481.538-3.042-4.5 3.309-6.876 5.662-6.896 4.11-.037 8.161.973 11.996 2.779-3.564-.048-6.873 1.467-10.177 3.579Zm37.69 18.246c1.05-2.853 2.447-5.5 4.242-7.672 2.069-2.505 6.439-6.42 8.966-2.881 2.701 3.781-2.33 6.049-4.449 7.276-2.522 1.464-5.08 2.865-7.312 5.006a18.468 18.468 0 0 0-3.04 3.794c.418-1.9.94-3.751 1.593-5.523Zm-23.934 6.692c-.727-.554-4.293-3.499-2.603-4.969.254-.22 1.38.161 1.675.206a39.74 39.74 0 0 1 3.3.665c3.03.737 6.014 1.83 8.789 3.577 3.03 1.91 5.733 4.691 7.662 8.145a20.235 20.235 0 0 0-3.852-2.206c-4.881-2.143-10.454-1.974-14.971-5.418Zm28.42 55.767c1.934-2.473 6.873-9.319 9.72-5.437 3.099 4.226-5.807 8.783-7.818 10.15-1.958 1.33-4.262 2.551-6.354 4.049.672-3.378 2.483-6.243 4.452-8.762Zm-8.556 16.568c-1.804-.799-3.4-1.219-4.803-3.036-1.281-1.66-2.15-3.911-2.238-6.258-.042-1.095-.262-2.758 1.042-2.569.582.084 1.892 2.386 2.3 2.944 1.403 1.914 2.695 3.954 3.956 6.023-.052.985-.103 1.973-.17 2.957-.031-.018-.055-.047-.087-.061Zm12.316 26.5c-5.046 3.462-10.278 6.208-15.616 8.769.142-.47.28-.939.417-1.41 4.114-4.854 7.468-11.093 11.25-16.293 1.824-2.511 3.742-4.981 6.012-6.834 2.343-1.912 7.521-5.026 9.467-1.023 3.707 7.627-7.65 14.129-11.53 16.791ZM60.972 244.155c-4.193 8.691-7.814 18.151-10.08 27.98-10.236 5.582-19.553 13.655-27.026 24.728-.663.984.428 2.414 1.126 1.441 7.217-10.091 16.188-17.732 26.068-22.882.304-.158.611-.311.915-.465a.92.92 0 0 0 .476.463c4.127 1.719 8.267 3.557 12.044 6.34 3.115 2.295 7.849 6.593 8.69 11.492.813 4.739-4.649 1.653-6.237.739-2.068-1.188-4.024-2.709-5.806-4.5-3.706-3.725-5.794-8.412-8.38-13.297-.646-1.221-2.242-.482-1.908 1.029 1.537 6.927 6.55 13.061 11.148 16.83 2.814 2.305 10.523 8.1 13.324 2.952 2.717-4.998-3.97-12.68-6.704-15.175-4.251-3.876-9.297-6.111-14.27-8.034a84.337 84.337 0 0 1 23.694-7.042c.421-.059.843-.101 1.264-.156-.905 6.72 5.468 12.268 10.174 11.671 2.236-.284 4.442-2.081 3.038-5.142-.787-1.719-2.349-3.17-3.513-4.487a50.25 50.25 0 0 0-2.564-2.691 98.842 98.842 0 0 1 5.836-.15c2.364.015 4.727.115 7.086.294 2.521.194 5.217.264 7.358 2.09-3.389 3.04-6.174 7.186-7.939 12.575-.313.959.888 1.521 1.272.687 2.111-4.57 5.079-8.291 8.532-11.029 1.351 2.094 2.311 4.695 3.272 7.038 1.294 3.155 2.478 6.4 3.253 9.833 1.364 6.045 1.3 12.729-1.61 18.048-2.833 5.177-8.265 6.828-12.534 3.438-5.061-4.02-4.683-11.418-2.453-17.503.556-1.519-.84-3.047-1.85-1.826-4.05 4.899-3.568 14.133-.208 19.415 3.46 5.438 9.834 7.299 14.793 4.319 4.624-2.779 7.244-8.977 7.903-15.255.835-7.954-1.612-15.692-4.461-22.589-.96-2.324-1.957-4.768-3.228-6.9 3.318-1.968 6.953-3.108 10.651-3.275a25.904 25.904 0 0 1 4.696.226c2.052 2.114 3.396 4.642 4.344 8.174 1.065 3.963 1.407 8.15 2.188 12.205.714 3.707 1.764 7.426 3.754 10.343 1.332 1.952 3.857 4.343 5.816 2.252 2.04-2.178.649-7.509.225-10.273-.719-4.677-1.854-9.327-3.724-13.471-1.162-2.577-2.611-4.895-4.294-6.827 4.032 1.757 7.884 4.275 11.454 7.216 1.922 1.583 3.773 3.296 5.595 5.058 2.484 3.567 4.611 7.585 6.254 11.902-.381.154-.704.564-.706 1.161-.016 5.706-.974 10.207-2.92 15.302-1.143 2.995-2.079 6.183-1.342 9.526 1.329 6.044 7.005 6.556 9.584 1.482 3.233-6.362.8-17.078-1.169-23.509-1.201-3.921-2.758-7.565-4.655-10.891 3.272 3.232 6.582 6.389 10.197 9.01 6.728 4.88 14.484 8.194 22.293 6.976 5.905-.923 14.281-4.85 16.343-12.857.334-1.299-.991-2.736-1.899-1.869-1.684 1.603-3.037 3.649-4.766 5.201a19.578 19.578 0 0 1-5.678 3.555c-4.405 1.81-9.065 1.869-13.557.537-8.505-2.521-15.601-9.153-22.447-15.761-2.41-2.326-4.841-4.596-7.34-6.71 4.229 1.754 8.599 2.845 13.071 2.445 6.841-.609 12.319-4.716 16.494-11.58 1.386-2.279 2.918-5.406 1.033-7.997-1.587-2.182-4.385-1.989-6.404-1.184-2.55 1.013-4.667 3.254-6.362 5.84-1.735 2.647-3.902 6.171-4.412 9.619-.218 1.476 1.188 2.836 2.105 1.568 1.391-1.92 2.109-4.567 3.207-6.766 1.14-2.283 2.505-4.512 4.282-6.037.993-.854 2.133-1.532 3.325-1.739 1.384-.241 1.466-.252 1.988 1.617.542 1.939.42 1.775-.427 3.207-1.508 2.551-3.254 4.904-5.322 6.719-9.177 8.057-20.77 2.649-30.295-1.441a47.7 47.7 0 0 0-2.754-1.609 22.868 22.868 0 0 0 5.82-2.991c4.476-3.183 9.912-9.792 8.938-17.044-.372-2.762-1.997-5.251-4.143-6.011-2.491-.881-4.544 1.093-5.824 3.664-3.313 6.661-5.161 17.227-11.678 19.481a30.49 30.49 0 0 0-6.462-1.171 5.752 5.752 0 0 0-.804-.292.829.829 0 0 0-.823.216c-5.328-.089-10.672 1.268-15.258 4.288-.067-.077-.127-.161-.196-.235-2.185-2.378-4.852-3.073-7.64-3.372-3.7-.397-7.44-.5-11.169-.393 2.237-1.453 4.214-3.73 5.983-6.089 2.656-3.542 6.357-8.701 3.886-13.882-2.256-4.728-6.423-2.225-8.483 1.254-1.904 3.217-3.259 7.077-4.786 10.597-1.177 2.713-2.766 5.576-3.69 8.569-7.8.751-15.605 2.48-23.097 5.356 1.35-1.538 2.674-3.104 4.008-4.564 2.785-3.042 5.684-5.998 8.089-9.553 3.154-4.664 7.796-14.753 2.299-19.598-6-5.303-11.258 4.687-13.891 10.146Zm98.975 52.347c1.411 4.91 2.199 10.097 2.172 15.358-.016 3.014-1.872 11.142-5.386 7.25-2.246-2.489-.627-6.896.419-9.578 1.648-4.232 2.832-8.468 2.795-13.03Zm-21.361-33.189c1.101-1.085 2.097-2.411 2.963-3.893 1.671-2.855 2.767-6.13 3.91-9.362.96-2.713 2.732-9.153 5.684-5.695 2.763 3.236-.295 8.83-2.251 11.48a20.683 20.683 0 0 1-5.992 5.43 24.126 24.126 0 0 1-4.314 2.04Zm-5.145 9.439c-.431-1.609-1-3.326-1.723-4.931 2.698 2.472 4.87 5.93 6.362 9.81 1.365 3.551 2.218 7.373 2.794 11.253.207 1.396.387 2.814.519 4.224.036.377.333 1.82.161 2.145-1.148 2.161-3.449-2.404-3.881-3.333-2.69-5.784-2.558-12.918-4.232-19.168ZM87.27 261.234c1.169-2.678 2.124-5.628 3.162-8.135 1.066-2.575 4.627-13.977 7.928-10.01 3.032 3.643-2.315 9.969-4.246 12.445-1.966 2.521-4.206 4.839-6.844 5.7Zm-6.143 5.144c.77-.085 1.54-.151 2.31-.217 1.616 1.612 3.209 3.267 4.704 5.064.436.523 2.233 2.201 2.3 2.946.147 1.669-1.152 1.387-2.007 1.334-1.835-.114-3.592-1.225-4.888-2.866-1.42-1.797-1.746-3.839-2.371-6.148-.011-.044-.034-.076-.048-.113Zm-7.536-30.42c3.127 2.491.695 9.121-.799 12.12-1.447 2.907-3.376 5.36-5.338 7.699-4.06 4.839-8.934 9.135-12.725 14.4-.368.175-.736.352-1.101.534 2-6.832 4.144-13.533 6.849-19.994 2.079-4.967 7.156-19.505 13.114-14.759Z"/><defs><linearGradient id="a" x1="228" x2="1.942" y1="144.711" y2="144.711" gradientUnits="userSpaceOnUse"><stop offset=".04" stop-color="#F3EAA7"/><stop offset=".136" stop-color="#BC9728"/><stop offset=".235" stop-color="#7C671F"/><stop offset=".374" stop-color="#BC9728"/><stop offset=".535" stop-color="#F3EAA7"/><stop offset=".686" stop-color="#7C671F"/><stop offset=".834" stop-color="#B49127"/><stop offset=".98" stop-color="#F3EAA7"/></linearGradient></defs></svg>