<svg xmlns="http://www.w3.org/2000/svg" width="168" height="238" fill="none"><path fill="url(#a)" d="M140.604 237.141h-4V39.871H0v-5.776h140.604v203.046Z"/><path fill="#fff" d="M111.493 55.144c-.393-.11-.374-.91-.022-1.075 3.094-1.463 6.478-1.569 9.652-2.806a.66.66 0 0 1 .159-.338c2.216-2.264.047-5.532-1.865-5.661-1.215-.082-2.399.674-3.476 1.388-1.544 1.024-3.052 2.166-4.594 3.2-2.023 1.357-4.117 2.35-6.22 1.466.401 2.294 2.244 4.559 3.272 5.95 1.367 1.85 2.992 3.468 4.932 3.595 3.584.234 6.067-3.838 8.011-7.63-3.052 1.315-6.74 2.774-9.849 1.911ZM129.733 74.25c.285 2.758.879 5.653.808 8.45-.021.827-.745.948-.951.219-.781-2.764-.917-6.136-1.199-9.087-.272-2.85-.483-5.717-.578-8.592-.979 2.156-2.015 4.292-2.793 6.574-1.178 3.455-1.054 6.86-.098 10.381 1.615 5.95 4.657 14.857 9.527 15.788-1.337-4.897-.415-10.143-.163-15.316.335-6.863-.821-15.603-5.281-19.092.014.563.027 1.125.05 1.69.121 3.01.369 6.006.678 8.985ZM145.304 126.941c.377.393-.086 1.296-.473.953-5.5-4.888-10.527-10.82-14.979-17.574.149 2.731.407 5.42 1.026 8.064.953 4.076 3.119 6.716 5.679 8.699 4.566 3.535 9.544 4.635 14.376 6.894-4.077-3.589-4.279-10.474-6.818-15.81-1.617-3.398-4.298-6.347-6.671-8.589-2.216-2.096-4.638-3.162-7.131-1.882l.034.056c4.477 7.186 9.533 13.539 14.957 19.189ZM114.717 109.64c-1.59 5.233-4.026 11.982-7.386 15.287-.377.371-.888-.328-.654-.891 1.102-2.661 2.695-4.897 3.905-7.47a68.562 68.562 0 0 0 2.913-7.3c.068-.202.129-.409.195-.612-4.489-.403-8.762 6.63-10.262 12.026-1.609 5.784-1.157 12.22.897 17.603 1.361-1.796 2.931-3.127 4.435-4.703 1.793-1.877 3.344-4.212 4.537-6.911 2.118-4.793 3.854-12.389 1.598-17.651-.061.206-.115.416-.178.622ZM101.461 91.693c-.496.266-.693-.73-.343-1.122 3.524-3.959 7.787-6.618 11.441-10.38.261-.269.518-.55.776-.828.288-4.172-2.983-5.672-5.235-4.552-2.05 1.02-3.547 3.579-4.964 5.82-2.519 3.986-5.369 7.075-8.762 9.235 2.379 5.052 7.363 4.75 11.066 3.066 3.345-1.52 7.799-6.012 8.13-11.648-3.645 3.918-7.851 8.131-12.109 10.409ZM145.625 144.224c-3.544-3.323-7.244-5.587-11.327-7.136-2.612-.991-5.606-1.725-8.202-3.32.054.119.104.244.157.363 3.811 1.754 7.416 5.336 10.697 8.45 3.869 3.671 7.813 7.214 11.646 10.959.297.29.072.891-.258.705-4.181-2.357-7.882-6.389-11.627-9.889-3.038-2.841-6.167-5.172-9.331-7.553.431 1.053.864 2.103 1.335 3.103a91.768 91.768 0 0 0 4.845 9.016c3.324 5.405 7.125 10.197 11.172 14.442.336.352-.078 1.164-.423.852-4.414-3.978-8.359-8.81-11.821-14.423a87.904 87.904 0 0 1-4.629-8.518l-.481-1.012c1.999 6.594 5.146 12.265 8.611 17.947 5.653 9.27 11.4 18.568 18.016 26.438.225-2.785.338-5.653-.394-8.294a18.708 18.708 0 0 0-3.462-6.78c-.252-.314-.011-.959.308-.831.797.322 1.499 1.069 2.109 2.005 1.387 1.426 2.674 2.983 4.245 4.071 1.741 1.207 3.586 1.997 5.468 2.573-1.112-4.121-2.659-7.834-4.469-11.384-1.427-.654-2.684-1.616-3.52-2.83-.193-.28-.023-.807.26-.702.973.364 1.895.864 2.824 1.324.012.005.024.01.036.018 1.01.499 2.03.953 3.135 1.135 1.896.312 3.632-.348 5.453-.535-6.849-6.596-13.47-13.721-20.373-20.194Z"/><path fill="#BC9728" d="M167.242 164.287c-6.829-7.564-13.662-15.267-20.892-22.04-3.231-3.027-6.631-5.288-10.338-6.797-1.933-.787-3.891-1.421-5.837-2.134-1.071-.393-2.127-.887-3.185-1.367.445.022.877.026 1.268.038 1.666.045 3.302-.269 4.92-.826.409-.14.31-1.142-.117-1.064a20.035 20.035 0 0 1-4.614.306c-.527-.028-1.075-.153-1.628-.289a3.942 3.942 0 0 0-.076-.999c-.319-1.508-1.39-2.555-2.472-2.525a1.977 1.977 0 0 0-.682.152c-2.638-6.111-3.405-13.496-4.137-20.66-.574-5.616-.924-11.15-.66-16.67 1.092 2.874 2.572 5.64 3.779 8.096a120.018 120.018 0 0 0 6.012 10.839c-.585 3.121.141 6.699.733 9.709.753 3.827 2.282 6.75 4.539 9.025 4.935 4.975 12.126 7.996 18.102 8.386.42.028.405-.804.067-.976-.143-.074-.288-.133-.431-.204.229-.17.316-.717.026-.989-2.988-2.793-3.659-8.166-4.961-12.589-1.115-3.787-2.879-6.523-5.056-9.114-3.218-3.83-7.975-9.083-12.246-5.479a125.366 125.366 0 0 1-5.382-9.837c-1.695-3.473-3.01-7.653-4.853-10.976.188-1.745.429-3.49.775-5.238 1.635-8.276 4.535-15.97 7.584-23.318.205-.495.42-.982.63-1.474a71.952 71.952 0 0 0-.345 6.856c-1.681 3.224-3.618 6.832-4.549 10.654-.921 3.78-.379 7.587.708 11.158 2.091 6.875 5.562 16.234 11.568 15.969.497-.022.762-.805.53-1.408-1.414-3.683-1.108-7.82-.8-11.843.276-3.608.456-7.139.045-10.746-.574-5.047-2.335-12.465-6.283-13.687-.035-3.416.115-6.812.541-10.159 1.203-2.628 2.481-5.183 3.907-7.568 2.272-3.803 4.882-6.77 7.657-9.758.727-.783.088-2.285-.726-1.727-4.073 2.788-7.356 7.75-10.111 13.15-2.454 1.278-4.793 2.972-7.257 4.245.33-.782.459-1.74.343-2.798-.27-2.454-1.907-3.88-3.497-4.162-5.211-.924-10.032 9.106-15.134 5.443-.371-.268-.965-.01-1.022.672-.249 2.991 1.133 5.056 2.445 7.14 1.602 2.544 3.476 5.051 5.861 5.869 4.222 1.445 9.316-3.508 10.567-9.31a.852.852 0 0 0-.063-.536c2.111-.936 4.35-2.077 6.342-3.668-.877 1.873-1.7 3.762-2.473 5.597-1.987 4.718-3.9 9.604-5.492 14.68a59.189 59.189 0 0 1-6.694 9.106c.029-4.7-3.832-6.738-6.702-5.238-2.332 1.219-3.937 3.893-5.575 6.45-2.486 3.877-5.314 6.83-8.723 8.79-.435.25-.616.869-.398 1.481 2.507 7.031 8.798 6.966 13.349 4.738 3.816-1.868 9.528-7.97 8.686-14.764a48.72 48.72 0 0 0 4.876-6.535c-.669 2.478-1.255 5-1.71 7.576-.691 3.91-.948 7.804-.957 11.699-.501 4.87-1.42 9.646-2.76 14.175-4.629-1.391-9.634 6.027-11.495 11.307-2.497 7.085-2.042 15.553.792 22.271.232.548.784.639 1.09.166 1.974-3.056 4.678-4.766 6.776-7.625 1.722-2.347 3.103-5.259 4.049-8.389 1.49-4.928 2.424-11.512.008-16.065.154-.371.149-.865-.118-1.131a73.11 73.11 0 0 0 1.797-9.144c.19 3.521.534 7.049.927 10.598.718 6.5 1.584 13.65 4.326 18.978a4.091 4.091 0 0 0-.422.876c-.482 1.395-.31 3.19.448 4.307.502.74 1.168 1.06 1.827 1.034-.455 3.698-.831 7.421-1.42 11.092-.124.773.672 1.027.826.276.557-2.719 1.083-5.557 1.447-8.423 1.614 7.682 5.244 14.664 8.702 20.613 6.128 10.54 12.739 20.943 20.232 29.486.329.376.974.292 1.036-.452.306-3.647.638-7.461-.401-10.93-.034-.113-.076-.234-.112-.351 2.601 2.201 5.923 3.34 8.463 3.971.391.097.821-.414.669-1.025-1.067-4.282-2.525-8.283-4.522-11.74 2.802.847 5.925.579 7.787-1.193.019-.017.021-.048.037-.068.285-.052.508-.657.229-.966Zm-29.798-54.709c2.373 2.242 5.054 5.191 6.671 8.589 2.54 5.336 2.741 12.221 6.818 15.81-4.832-2.259-9.81-3.359-14.376-6.894-2.56-1.983-4.726-4.623-5.679-8.699-.619-2.646-.877-5.333-1.026-8.064 4.452 6.754 9.479 12.686 14.979 17.574.386.344.85-.558.473-.953-5.424-5.652-10.48-12.004-14.957-19.19a1.042 1.042 0 0 0-.034-.056c2.493-1.278 4.915-.213 7.131 1.883Zm-3.158-26.91c-.253 5.172-1.174 10.418.163 15.315-4.87-.931-7.912-9.838-9.527-15.788-.956-3.524-1.08-6.927.098-10.381.778-2.282 1.814-4.418 2.793-6.574.095 2.875.306 5.742.578 8.592.282 2.952.418 6.323 1.199 9.087.206.729.93.607.951-.219.07-2.795-.523-5.692-.808-8.45-.309-2.981-.557-5.976-.678-8.987-.023-.563-.036-1.126-.05-1.69 4.46 3.49 5.616 12.232 5.281 19.094Zm-20.953-21.805c-1.941-.127-3.565-1.747-4.932-3.596-1.029-1.392-2.871-3.655-3.272-5.95 2.103.884 4.197-.108 6.22-1.465 1.542-1.034 3.049-2.176 4.594-3.2 1.077-.714 2.261-1.47 3.476-1.388 1.912.128 4.08 3.398 1.865 5.66a.66.66 0 0 0-.159.339c-3.174 1.237-6.558 1.343-9.652 2.806-.352.166-.372.967.022 1.075 3.109.863 6.797-.596 9.851-1.91-1.946 3.792-4.428 7.864-8.013 7.629ZM105.44 92.93c-3.703 1.684-8.687 1.986-11.066-3.066 3.393-2.16 6.243-5.249 8.762-9.234 1.417-2.242 2.913-4.8 4.964-5.82 2.252-1.12 5.523.38 5.235 4.552-.258.276-.515.557-.776.827-3.654 3.762-7.917 6.422-11.441 10.38-.35.393-.153 1.388.343 1.122 4.258-2.277 8.464-6.49 12.109-10.41-.331 5.638-4.784 10.129-8.13 11.65Zm7.857 33.738c-1.193 2.701-2.744 5.035-4.537 6.912-1.504 1.575-3.074 2.907-4.435 4.703-2.055-5.383-2.506-11.818-.897-17.603 1.501-5.397 5.773-12.431 10.262-12.026-.066.203-.127.41-.195.612a68.393 68.393 0 0 1-2.913 7.3c-1.211 2.573-2.804 4.808-3.905 7.47-.234.565.278 1.262.654.891 3.36-3.306 5.796-10.054 7.386-15.287.063-.207.117-.416.178-.623 2.256 5.261.52 12.859-1.598 17.651Zm47.25 38.286c-1.106-.182-2.125-.635-3.135-1.135a.195.195 0 0 0-.036-.017c-.929-.461-1.851-.961-2.824-1.325-.283-.105-.454.422-.26.702.836 1.215 2.092 2.176 3.52 2.831 1.81 3.549 3.357 7.262 4.469 11.383-1.882-.576-3.727-1.367-5.468-2.573-1.57-1.089-2.858-2.644-4.245-4.071-.61-.937-1.311-1.682-2.109-2.004-.319-.129-.56.517-.308.83a18.684 18.684 0 0 1 3.462 6.78c.732 2.641.619 5.509.394 8.295-6.616-7.87-12.363-17.169-18.016-26.438-3.465-5.683-6.612-11.354-8.611-17.947l.481 1.012a87.906 87.906 0 0 0 4.629 8.517c3.462 5.613 7.406 10.447 11.821 14.424.345.31.759-.5.423-.852-4.047-4.245-7.848-9.036-11.172-14.443a91.637 91.637 0 0 1-4.845-9.015c-.471-1.001-.904-2.051-1.335-3.104 3.163 2.382 6.292 4.713 9.331 7.553 3.744 3.501 7.446 7.532 11.627 9.889.331.186.556-.414.258-.705-3.833-3.744-7.776-7.288-11.646-10.959-3.281-3.113-6.886-6.696-10.697-8.449-.053-.121-.104-.244-.157-.364 2.596 1.596 5.59 2.329 8.202 3.32 4.083 1.549 7.783 3.814 11.327 7.137 6.903 6.473 13.524 13.599 20.375 20.197-1.823.183-3.559.843-5.455.531Z"/><path fill="#fff" d="M92.777 15.513c-.128-.696.453-1.123.803-.674 1.973 2.527 3.273 5.525 5.612 7.552.58.501 1.162.92 1.751 1.273.162-11.48-8.298-14.2-13.699-20.388-.139 4.85-.573 9.987-.104 14.69.832 8.345 8.026 12.804 12.408 7.105-3.17-1.966-5.99-5.318-6.77-9.558ZM58.387 24.147c-.251-.642.307-1.15.663-.738 4.485 5.184 8.173 10.252 13.517 13.326-1.457-7.012-4.383-12.758-8.925-16.516-2.998-2.48-6.584-3.282-9.207-6.488-1.952 8.081-1.995 15.956 3.353 21.715 3.907 4.206 8.979 5.692 13.431 3.103-5.389-2.767-10.128-7.493-12.832-14.402ZM51.476 63.436c-5.152 3.268-10.568 6.53-15.994 8.282-.434.14-.754-.788-.316-1.083 4.998-3.352 10.427-5.834 15.689-8.415a5.59 5.59 0 0 1-.223-.85 5.817 5.817 0 0 1-.074-.874c-6.861 1.135-14.051 1.288-20.75-1.012-.395-.136-.313-1.076.097-1.031 7.017.774 13.748 1.58 20.734.925.052-.287.126-.561.219-.821-11.673-4.942-23.264-4.099-35.042-.163 2.914.657 5.828 1.315 8.741 1.974.815.185.987 2.136.236 2.61-3.668 2.328-7.336 4.656-11.003 6.986l10.876.263c.798.018 1.417 1.641.708 2.466a54.559 54.559 0 0 0-4.704 6.361c5.703-.596 11.178-2.287 16.631-4.959 4.125-2.02 11.636-4.358 14.414-10.344-.087-.092-.162-.205-.239-.315Z"/><path fill="#BC9728" d="M127.406 32.842c-6.875-6.477-13.836-8.773-20.679-7.131a.374.374 0 0 0-.198-.116c-1.668-.332-3.233-.724-4.745-1.474 1.19-13.782-9.329-15.69-14.712-23.811-.46-.695-1.184-.12-1.23.735-.31 5.793-.528 11.965-.191 17.772.203 3.496 1.143 5.752 3.162 7.786 3.651 3.68 9.153 4.865 11.966-.849.915.454 1.838.799 2.737 1.007-3.434 1.455-6.83 3.902-10.159 7.343-1.628 1.684-3.205 3.467-4.769 5.274-4.922.933-9.948.39-14.683-1.906-.582-5.934-2.834-11.194-5.9-15.215-1.72-2.257-3.674-4.162-5.77-5.616-2.655-1.843-5.522-2.735-7.526-6.099-.479-.804-1.252-.244-1.477.563-2.735 9.802-2.914 19.745 3.503 26.595 4.005 4.274 12.362 7.848 16.304 1.702 4.542 1.918 9.42 2.517 13.871 1.92-2.873 3.348-5.744 6.703-8.838 9.62-6.463 6.094-13.598 8.864-21.108 9.013a32.34 32.34 0 0 0-.789-1.57c-.212-.927-.582-1.755-1.153-2.267-.02-.02-.043-.03-.063-.047a18.67 18.67 0 0 1-.659-1.465c-.876-2.232-1.582-4.59-2.285-6.94-.146-.489-.73-.14-.6.365.574 2.216 1.194 5.018 2.05 7.57-.631.076-1.246.463-1.709 1.13-.027.04-.047.084-.073.124-12.917-7.578-27.943-4.701-41.047.49-.875.347-1.001 2.519 0 2.745l10.184 2.308-12.077 7.655c-.951.602-.408 2.653.502 2.675 4.257.106 8.513.215 12.77.323a58 58 0 0 0-4.378 6.615c-.517.906-.23 2.526.711 2.48 8.906-.445 17.113-3.77 25.386-8.363 3.437-1.907 8.444-4.078 10.112-9.135.033-.006.066-.019.1-.026.321.007.64-.05.934-.241-.032.485-.068.97-.125 1.46-.25 2.131-.811 4.117-1.127 6.216-.109.724.527 1.1.814.496 1.217-2.56 1.821-6.312 1.805-9.788 7.809.449 14.863-2.734 21.37-8.252-4.3 9.809-4.106 22.232-5.203 33.489-.053.543.484.798.588.234 1.245-6.773 1.421-13.784 2.29-20.5 5.497 3.376 3.043 15.757.512 20.75-1.835 3.62-4.427 6.186-7.09 8.428.628-4.276.803-8.559.423-12.954-.61-7.052-1.546-14.776 4.844-16.425.335-.087.262-.909-.081-.864-2.825.367-5.263 2.637-6.23 6.667-.615 2.565-.176 4.923.11 7.494.67 6.024.572 11.368-.333 17.38-.09.599.359 1.22.759.844 4.96-4.654 9.444-8.98 10.943-17.712 1.027-5.981.752-12.833-3.615-15.304.688-4.58 1.778-9 3.839-13.082 2.198-2.032 4.337-4.306 6.419-6.803 1.515-1.817 3.018-3.703 4.545-5.554.42-.123.835-.254 1.241-.401.472-.17.459-.938.177-1.297 3.336-3.928 6.84-7.537 10.884-9.754 8.435-4.624 16.621-.86 24.069 5.417.774.653 1.439-1.025.698-1.724ZM87.139 17.965c-.469-4.702-.035-9.84.104-14.69 5.401 6.189 13.86 8.91 13.699 20.388a12.502 12.502 0 0 1-1.751-1.272c-2.339-2.027-3.638-5.025-5.612-7.553-.35-.449-.931-.021-.803.675.781 4.24 3.6 7.591 6.771 9.558-4.382 5.699-11.576 1.24-12.408-7.106Zm-29.35 17.48c-5.348-5.76-5.306-13.634-3.353-21.716 2.622 3.206 6.209 4.01 9.207 6.489 4.542 3.757 7.468 9.503 8.925 16.516-5.345-3.073-9.033-8.142-13.518-13.326-.356-.412-.914.095-.663.738 2.704 6.91 7.442 11.636 12.832 14.401-4.451 2.59-9.523 1.105-13.43-3.103Zm-20.49 38.653c-5.453 2.671-10.927 4.362-16.63 4.959a54.672 54.672 0 0 1 4.703-6.361c.71-.825.09-2.448-.708-2.467-3.625-.086-7.251-.174-10.876-.263l11.003-6.985c.75-.476.579-2.427-.236-2.61-2.914-.66-5.828-1.316-8.741-1.975 11.778-3.935 23.369-4.778 35.042.164-.093.26-.167.534-.219.821-6.986.654-13.716-.153-20.734-.925-.41-.045-.492.895-.097 1.03 6.7 2.301 13.89 2.15 20.75 1.013.006.287.023.578.074.874.052.301.133.582.223.85-5.263 2.58-10.691 5.063-15.689 8.415-.438.294-.117 1.223.316 1.083 5.427-1.755 10.842-5.014 15.994-8.282.078.108.152.221.237.318-2.776 5.981-10.288 8.32-14.412 10.34Z"/><defs><linearGradient id="a" x1="0" x2="140.604" y1="135.618" y2="135.618" gradientUnits="userSpaceOnUse"><stop offset=".04" stop-color="#F3EAA7"/><stop offset=".136" stop-color="#BC9728"/><stop offset=".235" stop-color="#7C671F"/><stop offset=".374" stop-color="#BC9728"/><stop offset=".535" stop-color="#F3EAA7"/><stop offset=".686" stop-color="#7C671F"/><stop offset=".834" stop-color="#B49127"/><stop offset=".98" stop-color="#F3EAA7"/></linearGradient></defs></svg>