<svg xmlns="http://www.w3.org/2000/svg" width="168" height="206" fill="none"><path fill="url(#a)" d="M26.766 0h4v171.036H167.37v5.008H26.766V0Z"/><path fill="#fff" d="M55.877 157.794c.393.096.374.789.022.933-3.094 1.268-6.478 1.36-9.652 2.433a.542.542 0 0 1-.159.293c-2.216 1.963-.047 4.796 1.865 4.908 1.215.071 2.4-.585 3.476-1.203 1.544-.888 3.052-1.878 4.594-2.775 2.023-1.177 4.117-2.037 6.22-1.271-.4-1.989-2.244-3.952-3.272-5.158-1.367-1.604-2.992-3.008-4.932-3.118-3.584-.203-6.067 3.328-8.01 6.615 3.051-1.14 6.74-2.404 9.848-1.657ZM37.637 141.23c-.285-2.392-.879-4.902-.808-7.327.021-.716.745-.822.951-.189.781 2.396.917 5.32 1.2 7.878.271 2.471.482 4.956.577 7.449.98-1.869 2.015-3.721 2.793-5.699 1.178-2.996 1.054-5.947.098-9.001-1.615-5.158-4.657-12.881-9.527-13.689 1.337 4.246.415 8.795.163 13.28-.335 5.951.821 13.528 5.281 16.553-.014-.488-.027-.975-.05-1.465-.12-2.609-.369-5.207-.678-7.79ZM22.066 95.545c-.377-.34.086-1.123.473-.827 5.5 4.239 10.527 9.382 14.98 15.238-.15-2.368-.408-4.699-1.027-6.992-.953-3.534-3.119-5.823-5.679-7.542-4.566-3.065-9.544-4.02-14.376-5.977 4.077 3.111 4.28 9.08 6.818 13.707 1.617 2.946 4.298 5.503 6.671 7.447 2.216 1.817 4.638 2.741 7.131 1.632l-.034-.049c-4.477-6.23-9.533-11.738-14.957-16.637ZM52.653 110.546c1.59-4.538 4.026-10.389 7.386-13.255.377-.321.888.285.654.773-1.102 2.307-2.695 4.246-3.905 6.477a55.028 55.028 0 0 0-2.913 6.329c-.068.175-.129.354-.195.531 4.49.349 8.762-5.748 10.262-10.427 1.61-5.015 1.157-10.595-.897-15.263-1.36 1.558-2.93 2.712-4.435 4.078-1.793 1.628-3.344 3.652-4.537 5.992-2.118 4.156-3.854 10.742-1.598 15.304.061-.179.115-.36.178-.539ZM65.91 126.106c.495-.23.692.632.342.973-3.524 3.432-7.787 5.738-11.44 9-.262.233-.519.477-.777.717-.288 3.617 2.983 4.918 5.235 3.947 2.05-.884 3.547-3.103 4.964-5.046 2.52-3.456 5.37-6.134 8.762-8.007-2.379-4.38-7.363-4.118-11.066-2.658-3.345 1.318-7.799 5.212-8.13 10.099 3.645-3.397 7.851-7.05 12.11-9.025ZM21.745 80.56c3.544 2.881 7.244 4.845 11.327 6.188 2.612.859 5.606 1.495 8.202 2.878-.054-.104-.104-.211-.157-.315-3.81-1.52-7.416-4.626-10.697-7.326-3.869-3.183-7.813-6.255-11.646-9.502-.297-.251-.072-.772.258-.61 4.181 2.043 7.882 5.538 11.627 8.573 3.038 2.463 6.167 4.484 9.331 6.549a53.83 53.83 0 0 0-1.335-2.691 76.803 76.803 0 0 0-4.845-7.817c-3.324-4.686-7.125-8.84-11.172-12.521-.336-.306.078-1.01.423-.739 4.414 3.45 8.36 7.639 11.821 12.506a73.594 73.594 0 0 1 4.63 7.384c.157.29.32.582.48.878-1.999-5.717-5.146-10.634-8.61-15.56-5.654-8.038-11.4-16.1-18.017-22.923-.225 2.415-.338 4.902.394 7.192.74 2.31 1.966 4.268 3.462 5.878.252.272.011.831-.308.72-.797-.28-1.499-.927-2.109-1.738-1.387-1.237-2.674-2.587-4.245-3.53-1.74-1.046-3.586-1.731-5.468-2.23 1.112 3.573 2.66 6.792 4.47 9.87 1.426.566 2.683 1.4 3.52 2.453.192.243.022.7-.26.609-.974-.316-1.896-.749-2.825-1.148a.22.22 0 0 1-.036-.015c-1.01-.434-2.03-.827-3.135-.984-1.896-.271-3.632.301-5.453.463 6.85 5.72 13.47 11.897 20.373 17.508Z"/><path fill="#BC9728" d="M.128 63.166c6.83 6.558 13.662 13.236 20.892 19.108 3.231 2.625 6.631 4.585 10.338 5.894 1.933.682 3.891 1.232 5.837 1.85 1.071.34 2.127.77 3.185 1.185-.445-.019-.877-.023-1.268-.033-1.666-.039-3.302.233-4.92.716-.409.122-.31.99.117.923a22.98 22.98 0 0 1 4.614-.265c.527.023 1.075.132 1.628.25-.015.284.005.576.076.867.32 1.307 1.39 2.214 2.472 2.188.236-.006.464-.054.682-.131 2.638 5.298 3.405 11.701 4.137 17.913.574 4.869.924 9.667.66 14.452-1.092-2.492-2.572-4.889-3.779-7.019a101.133 101.133 0 0 0-6.012-9.398c.585-2.705-.14-5.808-.733-8.417-.753-3.318-2.282-5.852-4.539-7.826-4.935-4.313-12.126-6.932-18.102-7.27-.42-.024-.405.697-.067.846.143.064.288.115.431.177-.229.147-.316.622-.026.857 2.988 2.422 3.66 7.08 4.961 10.916 1.115 3.283 2.88 5.655 5.056 7.901 3.218 3.321 7.975 7.876 12.246 4.751a105.096 105.096 0 0 1 5.382 8.529c1.695 3.011 3.01 6.635 4.853 9.516a45.564 45.564 0 0 1-.775 4.542c-1.635 7.175-4.535 13.846-7.584 20.216-.205.43-.42.852-.63 1.279.226-1.965.336-3.95.345-5.945 1.681-2.795 3.618-5.923 4.55-9.236.92-3.278.378-6.579-.709-9.675-2.09-5.961-5.562-14.075-11.568-13.845-.497.019-.762.697-.53 1.221 1.414 3.192 1.108 6.78.8 10.268-.276 3.127-.456 6.189-.045 9.316.574 4.376 2.335 10.808 6.283 11.867.035 2.962-.115 5.906-.54 8.808-1.204 2.279-2.482 4.494-3.908 6.562-2.272 3.297-4.882 5.87-7.657 8.46-.727.679-.088 1.981.726 1.498 4.073-2.418 7.356-6.72 10.111-11.401 2.454-1.108 4.793-2.577 7.257-3.681-.33.678-.459 1.508-.343 2.426.27 2.127 1.907 3.363 3.497 3.609 5.211.801 10.032-7.896 15.134-4.719.371.231.965.007 1.022-.584.25-2.593-1.133-4.383-2.445-6.19-1.602-2.206-3.476-4.38-5.86-5.088-4.223-1.254-9.317 3.041-10.568 8.072a.648.648 0 0 0 .063.464c-2.11.811-4.35 1.801-6.342 3.18.877-1.624 1.7-3.261 2.473-4.853 1.987-4.09 3.9-8.326 5.492-12.727a52.448 52.448 0 0 1 6.694-7.895c-.029 4.074 3.832 5.842 6.702 4.541 2.332-1.057 3.937-3.375 5.575-5.592 2.486-3.361 5.314-5.922 8.723-7.621.435-.216.616-.754.398-1.284-2.507-6.097-8.798-6.04-13.349-4.108-3.816 1.62-9.528 6.91-8.686 12.801-1.77 1.742-3.404 3.608-4.876 5.665a67.16 67.16 0 0 0 1.71-6.568c.691-3.391.948-6.766.957-10.143.501-4.223 1.42-8.364 2.76-12.29 4.63 1.206 9.634-5.226 11.495-9.804 2.497-6.142 2.042-13.484-.792-19.309-.232-.475-.784-.554-1.09-.144-1.974 2.65-4.678 4.132-6.776 6.611-1.722 2.035-3.103 4.56-4.049 7.273-1.49 4.273-2.424 9.982-.008 13.929-.154.322-.149.75.118.981a55.952 55.952 0 0 0-1.797 7.928c-.19-3.053-.534-6.112-.927-9.189-.718-5.636-1.584-11.835-4.326-16.455a3.38 3.38 0 0 0 .422-.758c.482-1.21.31-2.766-.448-3.735-.502-.641-1.168-.92-1.827-.897.455-3.206.831-6.434 1.42-9.617.124-.67-.672-.89-.826-.239-.557 2.358-1.083 4.818-1.447 7.303-1.614-6.66-5.244-12.714-8.702-17.871-6.128-9.139-12.739-18.159-20.232-25.566-.329-.325-.974-.253-1.036.392-.306 3.163-.638 6.47.401 9.477.034.097.076.203.112.304-2.6-1.908-5.923-2.896-8.463-3.443-.39-.084-.82.36-.669.889 1.067 3.712 2.525 7.182 4.522 10.179-2.802-.735-5.925-.502-7.787 1.034-.019.015-.02.041-.037.059-.285.045-.508.57-.229.838Zm29.798 47.433c-2.373-1.944-5.054-4.501-6.67-7.447-2.54-4.626-2.742-10.596-6.819-13.707 4.832 1.958 9.81 2.912 14.376 5.977 2.56 1.72 4.726 4.008 5.68 7.542.618 2.294.876 4.624 1.025 6.992-4.452-5.856-9.479-11-14.979-15.237-.386-.298-.85.484-.473.826 5.424 4.9 10.48 10.408 14.957 16.638a.852.852 0 0 0 .034.049c-2.493 1.108-4.915.184-7.13-1.633Zm3.158 23.332c.253-4.484 1.174-9.033-.163-13.279 4.87.808 7.912 8.53 9.527 13.689.956 3.055 1.08 6.006-.098 9.001-.778 1.978-1.814 3.83-2.793 5.699-.095-2.493-.306-4.978-.578-7.45-.282-2.559-.418-5.481-1.199-7.877-.206-.633-.93-.528-.95.189-.07 2.424.522 4.935.807 7.327.31 2.584.557 5.181.678 7.791.023.488.036.977.05 1.465-4.46-3.026-5.616-10.605-5.28-16.555Zm20.953 18.905c1.941.11 3.565 1.515 4.932 3.118 1.03 1.207 2.871 3.169 3.272 5.158-2.103-.766-4.197.094-6.22 1.271-1.542.896-3.049 1.887-4.594 2.774-1.077.619-2.26 1.275-3.476 1.204-1.912-.112-4.08-2.946-1.865-4.908a.546.546 0 0 0 .16-.293c3.173-1.073 6.557-1.165 9.651-2.433.352-.144.372-.839-.022-.933-3.109-.747-6.797.517-9.85 1.657 1.945-3.288 4.427-6.819 8.012-6.615Zm7.893-27.803c3.703-1.46 8.687-1.721 11.066 2.658-3.393 1.873-6.243 4.551-8.762 8.007-1.417 1.943-2.913 4.162-4.964 5.046-2.252.97-5.523-.33-5.235-3.947.258-.239.515-.483.776-.717 3.654-3.262 7.917-5.568 11.441-9 .35-.34.153-1.203-.343-.973-4.258 1.975-8.464 5.628-12.109 9.026.331-4.888 4.784-8.782 8.13-10.1Zm-7.857-29.252c1.193-2.34 2.744-4.364 4.537-5.992 1.504-1.366 3.074-2.52 4.435-4.078 2.055 4.668 2.506 10.247.897 15.263-1.5 4.679-5.773 10.777-10.262 10.427.066-.177.127-.356.195-.531a54.95 54.95 0 0 1 2.913-6.329c1.211-2.231 2.804-4.17 3.905-6.477.234-.49-.278-1.094-.654-.772-3.36 2.865-5.796 8.716-7.386 13.254-.063.179-.117.36-.178.539-2.256-4.561-.52-11.148 1.598-15.303ZM6.823 62.587c1.106.158 2.125.551 3.135.984a.212.212 0 0 0 .036.015c.93.4 1.851.833 2.824 1.148.283.092.454-.365.26-.608-.836-1.053-2.092-1.887-3.52-2.454-1.81-3.078-3.357-6.297-4.469-9.87 1.882.5 3.727 1.186 5.468 2.231 1.57.944 2.858 2.293 4.245 3.53.61.812 1.311 1.458 2.11 1.737.318.112.56-.448.307-.72-1.497-1.61-2.723-3.565-3.462-5.878-.732-2.29-.619-4.776-.394-7.191 6.616 6.823 12.363 14.885 18.016 22.922 3.465 4.927 6.612 9.844 8.611 15.56-.162-.295-.323-.588-.48-.877a73.686 73.686 0 0 0-4.63-7.385c-3.462-4.866-7.406-9.057-11.82-12.505-.346-.27-.76.433-.424.738 4.047 3.68 7.848 7.835 11.172 12.522a76.66 76.66 0 0 1 4.845 7.817 53.83 53.83 0 0 1 1.335 2.69c-3.163-2.064-6.292-4.085-9.33-6.548-3.745-3.035-7.447-6.53-11.628-8.574-.33-.161-.556.36-.258.611 3.833 3.247 7.776 6.32 11.646 9.502 3.281 2.7 6.886 5.806 10.697 7.326.053.105.104.211.157.315-2.596-1.383-5.59-2.02-8.202-2.878-4.083-1.344-7.783-3.307-11.327-6.188C14.84 74.946 8.22 68.77 1.368 63.048c1.823-.16 3.56-.731 5.455-.46Z"/><path fill="#fff" d="M74.593 192.156c.128.603-.453.974-.803.584-1.973-2.191-3.273-4.79-5.612-6.548a12.578 12.578 0 0 0-1.751-1.103c-.162 9.953 8.298 12.312 13.699 17.677.139-4.206.573-8.66.104-12.736-.832-7.236-8.026-11.102-12.408-6.162 3.171 1.706 5.991 4.612 6.771 8.288ZM108.983 184.67c.251.557-.307.996-.663.639-4.485-4.494-8.173-8.888-13.517-11.553 1.457 6.08 4.383 11.061 8.925 14.319 2.998 2.15 6.584 2.846 9.207 5.626 1.952-7.007 1.995-13.834-3.353-18.827-3.907-3.648-8.979-4.936-13.43-2.691 5.388 2.399 10.127 6.497 12.831 12.487ZM115.894 150.605c5.152-2.833 10.568-5.66 15.994-7.18.434-.122.754.683.316.939-4.998 2.906-10.427 5.058-15.689 7.295.091.233.171.476.223.738.051.256.068.508.074.757 6.861-.984 14.051-1.117 20.75.878.395.118.313.933-.097.894-7.017-.671-13.748-1.37-20.734-.803-.052.25-.126.487-.219.713 11.673 4.284 23.264 3.553 35.042.141-2.914-.569-5.828-1.14-8.741-1.711-.815-.161-.987-1.852-.236-2.264l11.003-6.056c-3.625-.077-7.251-.153-10.876-.228-.798-.016-1.417-1.424-.708-2.139a48.31 48.31 0 0 0 4.704-5.515c-5.703.517-11.178 1.983-16.631 4.3-4.125 1.751-11.636 3.778-14.414 8.968.087.08.162.178.239.273Z"/><path fill="#BC9728" d="M39.964 177.131c6.875 5.615 13.836 7.606 20.68 6.183a.393.393 0 0 0 .197.1c1.668.288 3.233.628 4.745 1.278-1.19 11.95 9.33 13.604 14.712 20.645.46.602 1.184.104 1.23-.637.31-5.023.528-10.375.191-15.409-.203-3.031-1.143-4.987-3.162-6.751-3.65-3.19-9.153-4.218-11.966.736a13.988 13.988 0 0 0-2.737-.873c3.434-1.262 6.83-3.383 10.16-6.366 1.627-1.46 3.204-3.006 4.768-4.573 4.922-.809 9.948-.338 14.683 1.653.582 5.145 2.834 9.705 5.9 13.191 1.72 1.957 3.674 3.609 5.77 4.87 2.655 1.597 5.522 2.371 7.526 5.287.479.697 1.252.212 1.477-.488 2.735-8.498 2.914-17.119-3.503-23.058-4.005-3.706-12.362-6.805-16.304-1.476-4.542-1.663-9.42-2.182-13.87-1.664 2.872-2.904 5.743-5.812 8.837-8.341 6.463-5.284 13.598-7.685 21.108-7.814.252.463.513.918.789 1.361.212.804.582 1.521 1.153 1.965.02.017.043.026.063.041.233.409.459.827.659 1.27.876 1.935 1.582 3.979 2.285 6.018.146.423.73.12.6-.317-.574-1.922-1.194-4.351-2.05-6.563.631-.067 1.246-.402 1.709-.981.027-.033.047-.072.073-.107 12.917 6.57 27.943 4.076 41.047-.425.875-.3 1.001-2.183 0-2.38-3.395-.667-6.79-1.333-10.184-2.001l12.077-6.637c.951-.522.408-2.3-.502-2.319-4.257-.092-8.513-.186-12.77-.28a50.356 50.356 0 0 0 4.378-5.736c.517-.785.23-2.19-.711-2.149-8.906.385-17.113 3.269-25.386 7.25-3.437 1.654-8.444 3.536-10.112 7.921-.033.005-.066.016-.1.022-.321-.006-.64.044-.934.209.032-.42.068-.841.125-1.266.25-1.848.811-3.569 1.127-5.39.109-.627-.527-.952-.814-.429-1.217 2.22-1.821 5.473-1.805 8.486-7.809-.389-14.863 2.37-21.37 7.154 4.3-8.503 4.106-19.275 5.203-29.035.053-.47-.484-.692-.588-.202-1.245 5.872-1.42 11.95-2.29 17.772-5.497-2.926-3.043-13.661-.512-17.989 1.835-3.139 4.427-5.364 7.09-7.308-.628 3.707-.803 7.421-.423 11.232.61 6.114 1.546 12.811-4.844 14.241-.335.075-.262.787.081.748 2.825-.318 5.263-2.286 6.23-5.78.615-2.224.176-4.268-.11-6.497-.67-5.224-.572-9.856.333-15.07.09-.518-.359-1.056-.759-.731-4.96 4.035-9.444 7.787-10.943 15.356-1.027 5.186-.752 11.127 3.615 13.27-.688 3.971-1.778 7.802-3.839 11.342a67.69 67.69 0 0 0-6.419 5.898c-1.515 1.575-3.018 3.211-4.545 4.816-.42.106-.835.22-1.24.348-.473.148-.46.812-.178 1.124-3.336 3.406-6.84 6.535-10.884 8.456-8.435 4.01-16.62.747-24.069-4.696-.774-.566-1.439.889-.698 1.495Zm40.267 12.899c.47 4.076.035 8.531-.104 12.735-5.4-5.365-13.86-7.725-13.699-17.676.59.307 1.172.669 1.751 1.103 2.34 1.758 3.638 4.357 5.612 6.548.35.39.931.019.803-.584-.78-3.676-3.6-6.582-6.77-8.288 4.381-4.94 11.575-1.074 12.407 6.162Zm29.35-15.155c5.348 4.993 5.306 11.82 3.353 18.827-2.622-2.78-6.209-3.476-9.207-5.626-4.542-3.257-7.468-8.239-8.925-14.319 5.345 2.664 9.033 7.059 13.518 11.554.356.356.914-.083.663-.64-2.704-5.991-7.442-10.089-12.832-12.487 4.451-2.245 9.523-.958 13.43 2.691Zm20.49-33.514c5.453-2.316 10.927-3.782 16.631-4.299a48.584 48.584 0 0 1-4.704 5.515c-.71.715-.09 2.122.708 2.138l10.876.228-11.003 6.056c-.75.414-.579 2.105.236 2.264l8.741 1.712c-11.778 3.412-23.369 4.143-35.042-.142.093-.225.167-.463.219-.712 6.986-.567 13.716.133 20.734.802.41.039.492-.776.097-.894-6.7-1.994-13.89-1.863-20.75-.877a4.4 4.4 0 0 0-.074-.758 4.45 4.45 0 0 0-.223-.737c5.263-2.238 10.691-4.39 15.689-7.296.438-.255.117-1.06-.316-.939-5.427 1.521-10.842 4.347-15.994 7.181-.078-.094-.152-.192-.237-.276 2.776-5.186 10.288-7.213 14.412-8.966Z"/><defs><linearGradient id="a" x1="167.371" x2="26.766" y1="88.022" y2="88.022" gradientUnits="userSpaceOnUse"><stop offset=".04" stop-color="#F3EAA7"/><stop offset=".136" stop-color="#BC9728"/><stop offset=".235" stop-color="#7C671F"/><stop offset=".374" stop-color="#BC9728"/><stop offset=".535" stop-color="#F3EAA7"/><stop offset=".686" stop-color="#7C671F"/><stop offset=".834" stop-color="#B49127"/><stop offset=".98" stop-color="#F3EAA7"/></linearGradient></defs></svg>