                        <svg xmlns="http://www.w3.org/2000/svg" width="100" height="100" fill="none">
                            <g fill="#D4AF37" clip-path="url(#a)">
                                <path
                                    d="M95.463 48.229a9.324 9.324 0 0 0 4.168-9.712 9.297 9.297 0 0 0-7.687-7.357 9.319 9.319 0 0 0 1.683-4.223 1.53 1.53 0 0 0-3.034-.405 6.24 6.24 0 0 1-2.726 4.375 6.11 6.11 0 0 1-4.636.906 6.144 6.144 0 0 1-3.93-2.669c-1.884-2.87-1.097-6.745 1.754-8.64a6.111 6.111 0 0 1 4.636-.905 6.145 6.145 0 0 1 4.132 2.998 1.53 1.53 0 1 0 2.657-1.52 9.185 9.185 0 0 0-6.176-4.477 9.18 9.18 0 0 0-3.992.064c.889-3.645-.484-7.631-3.738-9.88a9.168 9.168 0 0 0-5.232-1.635 9.232 9.232 0 0 0-7.155 3.404 43.483 43.483 0 0 0-6.186-1.98V4.502A3.576 3.576 0 0 0 56.428.93H42.183a3.576 3.576 0 0 0-3.572 3.572V6.91c-.224.061-.449.12-.672.185a1.53 1.53 0 0 0 .701 2.976 3.575 3.575 0 0 0 3.543 3.138h4.86l-3.153 5.482a4.6 4.6 0 0 0-.863-.082c-2.546 0-4.617 2.077-4.617 4.63 0 2.552 2.071 4.629 4.617 4.629s4.618-2.077 4.618-4.63a4.615 4.615 0 0 0-1.11-3.006l3.15-5.478 3.222 5.603a4.612 4.612 0 0 0-1.007 2.881c0 2.553 2.071 4.63 4.617 4.63 2.547 0 4.618-2.077 4.618-4.63 0-2.552-2.072-4.63-4.618-4.63-.35 0-.69.041-1.018.116l-3.172-5.515h4.101a3.574 3.574 0 0 0 3.567-3.482c1.6.415 3.154.922 4.657 1.516-1.418 3.889-.105 8.407 3.443 10.858a9.168 9.168 0 0 0 7.395 1.377 9.308 9.308 0 0 0 1.253 7.347 9.185 9.185 0 0 0 6.342 4.07 9.304 9.304 0 0 0-1.586 7.286 9.305 9.305 0 0 0 4.36 6.16 9.293 9.293 0 0 0-4.194 6.162 9.304 9.304 0 0 0 1.738 7.354 9.202 9.202 0 0 0-6.188 4.128 9.31 9.31 0 0 0-1.136 7.47 9.16 9.16 0 0 0-7.273 1.487 9.279 9.279 0 0 0-3.845 6.482 9.149 9.149 0 0 0-7.29-1.362 9.231 9.231 0 0 0-5.99 4.555 9.219 9.219 0 0 0-7.694-4.134c-2.194 0-4.218.76-5.81 2.053a9.265 9.265 0 0 0-4.274-6.063 9.203 9.203 0 0 0-4.765-1.334 9.15 9.15 0 0 0-2.699.413 9.302 9.302 0 0 0-1.689-7.265 9.149 9.149 0 0 0-6.575-3.677 9.304 9.304 0 0 0-3.572-13.263 9.238 9.238 0 0 0 2.862-3.299 1.53 1.53 0 0 0-2.722-1.401A6.197 6.197 0 0 1 8.47 49.96c-3.386-.433-5.79-3.56-5.358-6.969a6.199 6.199 0 0 1 2.366-4.153 6.115 6.115 0 0 1 4.55-1.242 6.2 6.2 0 0 1 5.287 4.95 1.531 1.531 0 0 0 3.002-.6 9.291 9.291 0 0 0-2.064-4.239 9.262 9.262 0 0 0 5.925-4.488 9.312 9.312 0 0 0 .689-7.522c.46.07.927.108 1.401.108a9.243 9.243 0 0 0 5.77-2.035c3.438-2.762 4.39-7.51 2.534-11.333.369-.18.74-.355 1.114-.522a1.53 1.53 0 1 0-1.25-2.795c-.56.251-1.114.516-1.663.791a9.178 9.178 0 0 0-6.515-2.691 9.245 9.245 0 0 0-5.77 2.034c-3.116 2.504-4.191 6.638-2.985 10.235a9.123 9.123 0 0 0-1.383-.11 9.258 9.258 0 0 0-8.073 4.748c-1.951 3.495-1.403 7.731 1.059 10.61a9.2 9.2 0 0 0-3.503 1.68 9.24 9.24 0 0 0-3.528 6.19 9.318 9.318 0 0 0 4.95 9.437C1.98 54.225.433 58.15 1.443 61.99c1 3.804 4.27 6.535 8.11 6.881-2.003 3.17-1.97 7.39.4 10.566a9.16 9.16 0 0 0 7.404 3.718c.92 0 1.819-.136 2.68-.398-.67 3.693.94 7.589 4.322 9.636a9.201 9.201 0 0 0 4.764 1.333c2.137 0 4.189-.76 5.816-2.077.758 3.68 3.708 6.686 7.613 7.306.481.076.97.115 1.453.115a9.18 9.18 0 0 0 8.082-4.779 9.24 9.24 0 0 0 2.812 2.72 9.153 9.153 0 0 0 6.966 1.15 1.53 1.53 0 1 0-.698-2.98 6.11 6.11 0 0 1-4.65-.768 6.187 6.187 0 0 1-2.775-3.887c-.774-3.349 1.3-6.706 4.625-7.485a6.11 6.11 0 0 1 4.651.769 6.187 6.187 0 0 1 2.774 3.887 6.268 6.268 0 0 1-1.023 5.08 1.53 1.53 0 0 0 2.482 1.792 9.321 9.321 0 0 0 1.694-4.346 9.236 9.236 0 0 0 5.197 1.604 9.156 9.156 0 0 0 5.323-1.7c3.259-2.308 4.58-6.367 3.594-10.03a9.204 9.204 0 0 0 9.713-4.063c2.157-3.37 1.863-7.632-.422-10.654a9.276 9.276 0 0 0 7.488-7.433 9.325 9.325 0 0 0-4.376-9.718ZM43.027 24.806a1.564 1.564 0 0 1-1.556-1.568c0-.865.698-1.569 1.556-1.569.858 0 1.556.704 1.556 1.569 0 .864-.698 1.568-1.556 1.568Zm4.748-14.658h-5.593a.517.517 0 0 1-.51-.51V4.502c0-.277.234-.51.51-.51h5.593v6.156Zm8.742 11.522c.858 0 1.556.703 1.556 1.568 0 .864-.698 1.568-1.556 1.568a1.564 1.564 0 0 1-1.556-1.568c0-.865.698-1.568 1.556-1.568Zm.422-12.033c0 .277-.234.51-.51.51h-5.593V3.992h5.592c.277 0 .51.234.51.51v5.136Zm16.388 11.038a6.12 6.12 0 0 1-3.491-1.093c-2.817-1.946-3.534-5.836-1.599-8.67a6.18 6.18 0 0 1 5.105-2.701 6.12 6.12 0 0 1 3.491 1.093c2.817 1.946 3.534 5.835 1.598 8.67a6.18 6.18 0 0 1-5.104 2.7ZM20.406 11.64a6.09 6.09 0 0 1 3.852-1.36c1.893 0 3.656.854 4.836 2.34 2.134 2.687 1.697 6.618-.974 8.764a6.089 6.089 0 0 1-3.852 1.36 6.146 6.146 0 0 1-4.835-2.34c-2.134-2.686-1.698-6.618.973-8.764ZM8.72 25.62a6.195 6.195 0 0 1 5.4-3.179c1.051 0 2.095.276 3.019.797 2.978 1.683 4.04 5.491 2.366 8.49a6.191 6.191 0 0 1-5.398 3.178 6.154 6.154 0 0 1-3.02-.798c-2.978-1.682-4.04-5.49-2.367-8.488Zm1.659 40.229c-2.8 0-5.257-1.907-5.975-4.637-.874-3.323 1.1-6.742 4.4-7.621a6.173 6.173 0 0 1 1.585-.209c2.8 0 5.257 1.907 5.975 4.638.875 3.323-1.099 6.741-4.4 7.62a6.169 6.169 0 0 1-1.585.209Zm10.683 13a6.103 6.103 0 0 1-3.704 1.246 6.126 6.126 0 0 1-4.95-2.488c-2.053-2.75-1.5-6.666 1.234-8.73a6.103 6.103 0 0 1 3.704-1.246c1.967 0 3.771.907 4.951 2.488 2.053 2.75 1.499 6.666-1.235 8.73Zm13.368 8.8a6.136 6.136 0 0 1-5.306 3.017 6.14 6.14 0 0 1-3.179-.891c-2.927-1.772-3.875-5.611-2.113-8.558a6.136 6.136 0 0 1 5.306-3.016c1.117 0 2.216.308 3.18.891 2.927 1.772 3.875 5.61 2.112 8.557Zm15.677 3.1c-.478 3.049-3.044 5.26-6.1 5.26-.324 0-.651-.026-.974-.077-3.37-.535-5.68-3.732-5.148-7.128.479-3.048 3.045-5.26 6.102-5.26.323 0 .65.027.972.078 3.372.535 5.68 3.733 5.148 7.128ZM84.5 41.58c-.674-3.37 1.5-6.663 4.846-7.34a6.204 6.204 0 0 1 1.227-.124c2.93 0 5.477 2.103 6.056 5.002.675 3.37-1.499 6.662-4.845 7.34a6.197 6.197 0 0 1-1.228.123c-2.929 0-5.476-2.103-6.056-5.001Zm-6.804 46.05a6.112 6.112 0 0 1-3.553 1.136 6.189 6.189 0 0 1-5.062-2.64c-1.969-2.81-1.299-6.708 1.495-8.688a6.112 6.112 0 0 1 3.553-1.136c2.012 0 3.904.986 5.062 2.64 1.969 2.81 1.299 6.709-1.495 8.688Zm12.498-13.245a6.156 6.156 0 0 1-8.544 1.867c-2.873-1.86-3.706-5.726-1.856-8.618a6.158 6.158 0 0 1 8.544-1.867c2.874 1.86 3.707 5.726 1.856 8.618Zm6.637-17.003c-.552 2.941-3.105 5.076-6.07 5.076-.385 0-.773-.037-1.155-.11-3.354-.636-5.567-3.902-4.933-7.28.552-2.94 3.105-5.075 6.07-5.075.384 0 .773.036 1.154.109 3.355.637 5.568 3.903 4.934 7.28Z" />
                                <path
                                    d="M94.627 39.517a1.53 1.53 0 1 0-3.001.601c.123.618-.26 1.218-.855 1.338a1.53 1.53 0 0 0 .607 3c2.246-.454 3.704-2.67 3.25-4.939ZM88.751 70.14a1.53 1.53 0 1 0-3.001.6c.124.618-.26 1.219-.855 1.34a1.53 1.53 0 0 0 .607 3c2.246-.455 3.704-2.671 3.25-4.94ZM64.165 88.883a1.53 1.53 0 1 0-3.001.601c.124.618-.26 1.218-.855 1.339a1.53 1.53 0 0 0 .607 3c2.246-.454 3.704-2.67 3.25-4.94Z" />
                            </g>
                            <defs>
                                <clipPath id="a">
                                    <path fill="#fff" d="M0 0h100v100H0z" />
                                </clipPath>
                            </defs>
                        </svg>