                        <svg xmlns="http://www.w3.org/2000/svg" width="100" height="100" fill="none">
                            <g fill="#D4AF37" clip-path="url(#a)">
                                <path
                                    d="m91.609 55.14-4.115-7.13a1.53 1.53 0 0 0-2.652 1.531l3.084 5.342h-9.397l-3.615-6.262a1.535 1.535 0 0 0-.13-.189l4.709-8.157 2.64 4.572a1.53 1.53 0 1 0 2.65-1.531l-3.11-5.386a2.556 2.556 0 0 0-2.206-1.275H76.56V27.6a2.554 2.554 0 0 0-2.551-2.551h-2.947v-6.094c4.534-.735 8.007-4.677 8.007-9.416C79.07 4.278 74.791 0 69.532 0c-5.26 0-9.538 4.279-9.538 9.538a1.53 1.53 0 0 0 3.062 0 6.484 6.484 0 0 1 6.476-6.477 6.484 6.484 0 0 1 6.476 6.477 6.484 6.484 0 0 1-6.477 6.477 1.53 1.53 0 0 0-1.53 1.53v7.503h-2.947a2.554 2.554 0 0 0-2.55 2.55v9.057h-2.907c-.908 0-1.754.488-2.208 1.274l-9.934 17.21a2.555 2.555 0 0 0 0 2.548l9.934 17.21a2.556 2.556 0 0 0 2.207 1.274h19.87c.908 0 1.754-.489 2.208-1.275l9.934-17.209a2.555 2.555 0 0 0 0-2.548Zm-15.731 1.273-3.173 5.497h-6.346l-3.173-5.497 3.173-5.496h6.346l3.173 5.496ZM65.565 28.11h7.934v3.047h-7.934V28.11Zm0 6.11h7.934v2.436h-7.934v-2.437Zm10.715 5.498-4.698 8.139h-4.133l-4.699-8.14h13.53Zm-16.726.586 4.706 8.152c-.04.053-.077.108-.11.166l-3.615 6.262h-9.397l8.416-14.58Zm0 32.22-8.417-14.58h9.397l3.615 6.263c.033.058.07.113.11.165l-4.705 8.152Zm3.196.587 4.699-8.14h4.133l4.698 8.14H62.75Zm16.743-.558-4.71-8.158a1.55 1.55 0 0 0 .13-.189l3.616-6.262h9.397l-8.433 14.609ZM30.469 23.83c-5.26 0-9.538 4.278-9.538 9.537a1.53 1.53 0 0 0 3.062 0 6.484 6.484 0 0 1 6.476-6.477 6.484 6.484 0 0 1 6.02 8.87 1.53 1.53 0 0 0 2.845 1.132 9.496 9.496 0 0 0 .672-3.525c0-5.259-4.278-9.538-9.537-9.538ZM52.545 78.968l-9.934-17.21a2.555 2.555 0 0 0-2.207-1.274h-2.907v-9.056a2.554 2.554 0 0 0-2.551-2.551h-2.947v-6.095a9.514 9.514 0 0 0 3.26-1.166 1.53 1.53 0 0 0-1.54-2.646 6.468 6.468 0 0 1-3.25.874 1.53 1.53 0 0 0-1.53 1.53v7.502h-2.947a2.554 2.554 0 0 0-2.551 2.552v9.056h-2.907c-.908 0-1.754.488-2.208 1.274l-9.935 17.21a2.556 2.556 0 0 0 0 2.548l9.935 17.21A2.556 2.556 0 0 0 20.534 100h19.87c.907 0 1.753-.489 2.206-1.275l1.769-3.062a1.53 1.53 0 1 0-2.652-1.53L40.43 96.38l-4.71-8.158a1.54 1.54 0 0 0 .13-.189l3.616-6.262h9.397l-4.426 7.667a1.53 1.53 0 0 0 2.651 1.53l5.457-9.453a2.556 2.556 0 0 0 0-2.548Zm-26.043-27.03h7.933v3.047h-7.933v-3.047Zm0 6.109h7.933v2.437h-7.933v-2.437Zm10.715 5.498-4.698 8.14h-4.133l-4.699-8.14h13.53Zm-16.726.587 4.706 8.152c-.04.052-.077.107-.11.166L21.47 78.71h-9.397l8.417-14.58Zm0 32.22-8.417-14.58h9.397l3.615 6.262c.034.059.071.114.111.166l-4.706 8.152Zm16.726.587h-13.53l4.698-8.14h4.133l4.7 8.14Zm2.249-18.228-.051-.088a1.53 1.53 0 1 0-2.65 1.53l.05.089-3.173 5.496h-6.346l-3.173-5.496 3.173-5.496h6.346l.53.917a1.53 1.53 0 1 0 2.65-1.53l-.971-1.683a1.513 1.513 0 0 0-.13-.19l4.709-8.157 8.433 14.608h-9.397Z" />
                            </g>
                            <defs>
                                <clipPath id="a">
                                    <path fill="#fff" d="M0 0h100v100H0z" />
                                </clipPath>
                            </defs>
                        </svg>