                        <svg xmlns="http://www.w3.org/2000/svg" width="100" height="100" fill="none">
                            <path fill="#D4AF37" d="M96.049 29.423c-.002-.01-.002-.01 0 0Z" />
                            <path fill="#D4AF37"
                                d="M96.294 29.98c.058.132.082.187 0-.002l-.243-.555.242.554c-.676-1.545-1.748-2.159-2.882-2.81-14.222-8.149-23.264-16.7-24.19-22.872C68.853 1.846 66.678 0 64.16 0H52.653a1.53 1.53 0 1 0 0 3.061H64.16c1.014 0 1.888.726 2.032 1.688.673 4.484 4.375 9.573 10.715 14.886a77.518 77.518 0 0 1-2.503 4.175 6.208 6.208 0 0 0-2.247-.42c-3.44 0-6.24 2.8-6.24 6.24 0 1.412.472 2.716 1.266 3.762a83.648 83.648 0 0 1-2.29 2.505 6.199 6.199 0 0 0-3.163-.865c-3.44 0-6.24 2.8-6.24 6.24 0 .956.217 1.863.603 2.674a87.205 87.205 0 0 1-4.412 3.287 8.035 8.035 0 0 0-3.258 0 87.59 87.59 0 0 1-4.295-3.195 6.2 6.2 0 0 0 .648-2.765 6.248 6.248 0 0 0-.788-3.038 1.53 1.53 0 1 0-2.673 1.491 3.182 3.182 0 0 1-2.778 4.724 3.182 3.182 0 0 1-3.179-3.178 3.182 3.182 0 0 1 3.179-3.178 1.53 1.53 0 0 0 0-3.062c-1.2 0-2.32.341-3.272.93a83.155 83.155 0 0 1-2.344-2.568 6.205 6.205 0 0 0 1.267-3.764c0-3.44-2.799-6.24-6.24-6.24-.795 0-1.554.151-2.254.423a76.582 76.582 0 0 1-3.11-5.298c5.421-5.13 8.475-9.76 9.076-13.767.144-.961 1.018-1.687 2.033-1.687H46.53a1.53 1.53 0 1 0 0-3.061H33.693C31.176 0 29 1.846 28.633 4.295 27.772 10.04 19.752 18.33 6.63 27.04c-1.492.99-2.314 1.535-2.925 2.938a4.928 4.928 0 0 0-.414 2.025c.156 17.825 4.84 34.615 13.19 47.278C25.29 92.64 37.194 100 50 100c12.804 0 24.708-7.358 33.518-20.718 3.499-5.306 6.373-11.359 8.544-17.99a1.53 1.53 0 1 0-2.91-.952c-2.085 6.372-4.841 12.178-8.19 17.257C72.737 90.069 61.742 96.939 50 96.939c-11.743 0-22.74-6.87-30.963-19.343-8.029-12.177-12.534-28.378-12.685-45.62a1.88 1.88 0 0 1 .159-.775c.237-.542.427-.692 1.812-1.61 3.26-2.164 7.767-5.353 11.921-8.96a80.284 80.284 0 0 0 2.954 4.96 6.211 6.211 0 0 0-1.488 4.039c0 3.44 2.799 6.24 6.24 6.24.92 0 1.794-.202 2.58-.561a86.513 86.513 0 0 0 2.604 2.85 6.198 6.198 0 0 0-.836 3.113c0 3.44 2.8 6.24 6.24 6.24 1.34 0 2.582-.426 3.6-1.148a91.352 91.352 0 0 0 3.071 2.334 8.021 8.021 0 0 0-.014 12.788c-4.974 4.7-7.897 10.936-7.81 17.02.007.535.059 1.073.11 1.605.06.637.116 1.308.306 1.923 1.467 5.75 6.499 9.763 12.253 9.763 5.824 0 10.88-4.082 12.294-9.927.17-.682.237-1.39.295-2.09.035-.421.08-.85.08-1.274.029-2.01-.268-4.06-.883-6.091a1.53 1.53 0 1 0-2.93.886c.523 1.73.777 3.467.752 5.14-.026.95-.155 1.877-.314 2.809-1.113 4.413-4.921 7.485-9.294 7.485-4.365 0-8.188-3.082-9.297-7.495-.227-.908-.284-1.885-.312-2.818-.065-5.57 2.851-11.327 7.743-15.515a8.006 8.006 0 0 0 3.73 0c1.981 1.699 3.673 3.683 4.96 5.837a1.53 1.53 0 0 0 2.629-1.57c-1.233-2.064-2.794-3.983-4.597-5.685a8.023 8.023 0 0 0 3.175-6.392 8.023 8.023 0 0 0-3.186-6.4 90.461 90.461 0 0 0 3.148-2.394 6.206 6.206 0 0 0 3.685 1.209c3.44 0 6.24-2.8 6.24-6.24a6.201 6.201 0 0 0-.9-3.224 87.564 87.564 0 0 0 2.503-2.741c.788.36 1.662.563 2.584.563 3.44 0 6.24-2.8 6.24-6.24a6.213 6.213 0 0 0-1.493-4.044 80.696 80.696 0 0 0 2.424-4.01c3.537 2.72 7.74 5.486 12.56 8.247 1.032.592 1.34.789 1.6 1.38.107.248.16.509.159.776-.07 7.775-1.017 15.36-2.819 22.547a1.53 1.53 0 0 0 2.97.744c1.86-7.42 2.839-15.248 2.91-23.264a4.945 4.945 0 0 0-.416-2.027Zm-68.345 2.828a3.182 3.182 0 0 1-3.179-3.178 3.182 3.182 0 0 1 3.179-3.179 3.182 3.182 0 0 1 3.178 3.179 3.182 3.182 0 0 1-3.178 3.178Zm27.074 22.29c0 2.74-2.229 4.97-4.97 4.97-2.74 0-4.97-2.23-4.97-4.97 0-2.741 2.23-4.97 4.97-4.97 2.74 0 4.97 2.23 4.97 4.97Zm6.708-10.647a3.182 3.182 0 0 1-3.178-3.179 3.182 3.182 0 0 1 3.178-3.178 3.182 3.182 0 0 1 3.179 3.178 3.182 3.182 0 0 1-3.179 3.179Zm10.427-11.643a3.182 3.182 0 0 1-3.179-3.178 3.182 3.182 0 0 1 3.179-3.179 3.182 3.182 0 0 1 3.178 3.179 3.182 3.182 0 0 1-3.178 3.178Z" />
                            <path fill="#D4AF37"
                                d="M50.053 70.788c-4.428 0-8.03 3.602-8.03 8.03 0 4.43 3.602 8.032 8.03 8.032 4.429 0 8.032-3.603 8.032-8.031 0-4.428-3.603-8.031-8.032-8.031Zm0 13c-2.74 0-4.97-2.229-4.97-4.97 0-2.74 2.23-4.97 4.97-4.97 2.741 0 4.97 2.23 4.97 4.97 0 2.741-2.23 4.97-4.97 4.97Z" />
                        </svg>