                        <svg xmlns="http://www.w3.org/2000/svg" width="100" height="100" fill="none"
                            viewBox="0 0 142 144">
                            <path fill="#D4AF37"
                                d="M121.193 60.186c-5.994-4.156-13.083-7.575-20.932-10.032l33.22-29.796L101.809 0H40.191L8.523 20.348l33.216 29.806c-7.865 2.457-14.946 5.876-20.947 10.032C7.966 69.056 0 81.35 0 94.898c0 13.551 7.968 25.84 20.791 34.714C33.635 138.495 51.406 144 71 144c19.593 0 37.365-5.505 50.193-14.388C134.032 120.738 142 108.449 142 94.898c0-13.549-7.968-25.843-20.807-34.712Zm-32.007-12.76-6.298 5.648 3.237-6.155 6.46-12.239 24.858-12.601-28.257 25.348Zm-3.81-11.93-5.618 10.673-3.936 7.478-1.392 2.628h-7.306l-1.373-2.604-3.94-7.468-5.636-10.708h29.2ZM55.7 31.084l3.734-10.261h22.69l3.735 10.26h-30.16Zm46.493-20.293 11.774 7.567-22.096 11.213-3.69-10.195 14.012-8.585ZM44.58 7.722h52.829l.072.058-14.087 8.628h-24.79l-14.086-8.64.062-.045Zm-4.773 3.07 13.642 8.354v.01l-3.78 10.403-21.842-11.068 11.98-7.7Zm-14.68 11.807L48.953 34.68l6.473 12.304 2.795 5.306-5.427-4.863-27.667-24.828Zm88.182 101.561c-10.846 7.491-25.766 12.115-42.31 12.115-16.542 0-31.462-4.624-42.309-12.115-10.839-7.502-17.517-17.82-17.517-29.262 0-11.445 6.679-21.76 17.517-29.262 5.694-3.933 12.509-7.076 20.084-9.175l5.94 5.33h32.57l5.944-5.33c7.573 2.1 14.388 5.242 20.081 9.175 10.839 7.501 17.521 17.817 17.521 29.262 0 11.442-6.682 21.76-17.521 29.262Z" />
                            <path fill="#D4AF37"
                                d="M71 65.784c-11.61 0-22.164 3.264-29.766 8.527-7.61 5.26-12.33 12.554-12.33 20.587 0 8.025 4.72 15.327 12.33 20.585 7.602 5.263 18.156 8.53 29.766 8.53s22.165-3.267 29.767-8.53c7.606-5.258 12.33-12.559 12.33-20.585 0-8.032-4.724-15.326-12.33-20.587-7.602-5.263-18.156-8.527-29.767-8.527Zm22.993 45.02C88.1 114.878 79.998 117.39 71 117.39c-8.994 0-17.095-2.512-22.994-6.586-5.898-4.085-9.527-9.685-9.527-15.906 0-6.225 3.629-11.823 9.527-15.905 5.9-4.077 14-6.586 22.994-6.589 8.998.003 17.099 2.512 22.993 6.589 5.895 4.082 9.527 9.68 9.527 15.905 0 6.221-3.632 11.823-9.527 15.906Z" />
                        </svg>